<svg xmlns="http://www.w3.org/2000/svg" width="21.312" height="21.5" viewBox="0 0 21.312 21.5">
  <defs>
    <style>
      .cls-1 {
        fill: #fff;
        fill-rule: evenodd;
      }
    </style>
  </defs>
  <path id="Forma_1" data-name="Forma 1" class="cls-1" d="M1006.13,11074.7h-9.554a5.869,5.869,0,0,0-5.884,5.9v9.7a5.933,5.933,0,0,0,5.884,5.9h9.554a5.933,5.933,0,0,0,5.88-5.9v-9.7A5.868,5.868,0,0,0,1006.13,11074.7Zm3.99,15.6a4,4,0,0,1-3.99,4h-9.554a4,4,0,0,1-3.992-4v-9.7a4,4,0,0,1,3.992-4h9.554a4,4,0,0,1,3.99,4v9.7h0Zm-8.77-10.4a5.55,5.55,0,1,0,5.5,5.5A5.523,5.523,0,0,0,1001.35,11079.9Zm0,9.2a3.682,3.682,0,0,1-3.6-3.7,3.6,3.6,0,1,1,7.2,0A3.678,3.678,0,0,1,1001.35,11089.1Zm5.73-10.8a1.216,1.216,0,0,0-.98.4,1.286,1.286,0,0,0-.41,1,1.383,1.383,0,0,0,1.39,1.4,1.717,1.717,0,0,0,.98-0.4,1.64,1.64,0,0,0,.4-1,1.28,1.28,0,0,0-.4-1A1.242,1.242,0,0,0,1007.08,11078.3Z" transform="translate(-990.688 -11074.7)"/>
</svg>
