<svg xmlns="http://www.w3.org/2000/svg" width="22.157" height="12.9" viewBox="0 0 22.157 12.9">
  <defs>
    <style>
      .cls-1 {
        fill: #fff;
        fill-rule: evenodd;
      }
    </style>
  </defs>
  <path id="Forma_1" data-name="Forma 1" class="cls-1" d="M937.7,11090.6c-0.027,0-.052-0.1-0.075-0.1a11.185,11.185,0,0,0-2.205-2.6h-0.034l-0.012-.1h-0.011c-0.493-.4-0.8-0.8-0.935-0.9a1,1,0,0,1-.162-1,13.117,13.117,0,0,1,1.039-1.5c0.315-.4.566-0.8,0.75-1,1.332-1.8,1.909-3,1.732-3.5l-0.069-.1a0.377,0.377,0,0,0-.358-0.2,0.937,0.937,0,0,0-.739,0h-3.763l-0.046.1a0.123,0.123,0,0,0-.127.1,1.366,1.366,0,0,0-.115.2,16.975,16.975,0,0,1-1.235,2.7,9.684,9.684,0,0,1-.785,1.2,2.708,2.708,0,0,1-.6.8,2.17,2.17,0,0,1-.438.4,0.854,0.854,0,0,1-.3.2c-0.07,0-.135-0.1-0.2-0.1a0.553,0.553,0,0,1-.259-0.3,0.816,0.816,0,0,1-.133-0.4c-0.023-.2-0.037-0.4-0.04-0.5s0-.3,0-0.6c0.008-.2.012-0.4,0.012-0.5q0-.45.017-0.9c0.012-.4.021-0.7,0.029-0.9s0.012-.4.012-0.6a3.525,3.525,0,0,0-.041-0.6,1.347,1.347,0,0,0-.121-0.3,0.315,0.315,0,0,0-.236-0.3,2.744,2.744,0,0,0-.387-0.2,7.072,7.072,0,0,0-1.559-.1,6.407,6.407,0,0,0-2.758.2,5.63,5.63,0,0,0-.439.4q-0.208.3-.058,0.3a1.387,1.387,0,0,1,.981.5l0.07,0.1a2.4,2.4,0,0,1,.161.6,4.185,4.185,0,0,1,.1.8,9.784,9.784,0,0,1,0,1.5c-0.038.4-.075,0.7-0.11,1a1.44,1.44,0,0,1-.155.5,0.708,0.708,0,0,1-.139.3h-0.058a0.383,0.383,0,0,1-.311.1,0.942,0.942,0,0,1-.393-0.2,1.878,1.878,0,0,1-.479-0.4c-0.165-.2-0.352-0.5-0.56-0.8-0.208-.4-0.423-0.8-0.646-1.3l-0.185-.3a7.6,7.6,0,0,1-.473-1q-0.3-.6-0.531-1.2a1.553,1.553,0,0,0-.277-0.4H920a0.656,0.656,0,0,0-.184-0.1c-0.085,0-.174-0.1-0.266-0.1l-3.163.1a0.661,0.661,0,0,0-.658.2h-0.046c-0.023.1-.035,0.2-0.035,0.2a1.824,1.824,0,0,0,.07.4c0.461,1.1.963,2.1,1.506,3.2,0.542,1,1.014,1.8,1.414,2.5a20.482,20.482,0,0,0,1.224,1.7,7.514,7.514,0,0,0,.825,1.1,5.07,5.07,0,0,0,.317.4l0.289,0.3c0.185,0.1.456,0.4,0.814,0.6a5.459,5.459,0,0,0,1.189.8,3.771,3.771,0,0,0,1.518.6,3.314,3.314,0,0,0,1.685.2h1.327a1.029,1.029,0,0,0,.612-0.2l0.046-.1a0.339,0.339,0,0,0,.087-0.2,1.146,1.146,0,0,0,.04-0.3,3.231,3.231,0,0,1,.075-0.9,4.223,4.223,0,0,1,.2-0.7,3.659,3.659,0,0,1,.249-0.3,0.768,0.768,0,0,1,.2-0.2h0.092a0.618,0.618,0,0,1,.653.2,3,3,0,0,1,.7.6c0.219,0.3.483,0.6,0.79,1a3.758,3.758,0,0,0,.808.7l0.231,0.2a4.51,4.51,0,0,0,.6.2,1.6,1.6,0,0,0,.646.1l2.955-.1a1.34,1.34,0,0,0,.681-0.1,0.615,0.615,0,0,0,.289-0.3,0.934,0.934,0,0,0,0-.4A2.711,2.711,0,0,0,937.7,11090.6Z" transform="translate(-915.656 -11079)"/>
</svg>
