<svg xmlns="http://www.w3.org/2000/svg" width="23.88" height="17.2" viewBox="0 0 23.88 17.2">
  <defs>
    <style>
      .cls-1 {
        fill: #fff;
        fill-rule: evenodd;
      }
    </style>
  </defs>
  <path id="Forma_1" data-name="Forma 1" class="cls-1" d="M1086.19,11083c0-.5-0.04-1.1-0.11-1.9a13.7,13.7,0,0,0-.29-1.9,2.953,2.953,0,0,0-.92-1.7,2.739,2.739,0,0,0-1.66-.8q-2.955-.3-8.94-0.3t-8.94.3a2.739,2.739,0,0,0-1.66.8,2.942,2.942,0,0,0-.91,1.7,11.153,11.153,0,0,0-.3,1.9c-0.07.8-.11,1.4-0.12,1.9s-0.01,1.1-.01,2,0,1.5.01,2,0.05,1.1.12,1.9a13.831,13.831,0,0,0,.28,1.9,2.909,2.909,0,0,0,.93,1.7,3.4,3.4,0,0,0,1.66.8q2.955,0.3,8.94.3t8.94-.3a3.363,3.363,0,0,0,1.65-.8,2.953,2.953,0,0,0,.92-1.7,13.578,13.578,0,0,0,.3-1.9c0.07-.8.11-1.4,0.11-1.9s0.02-1.1.02-2S1086.2,11083.5,1086.19,11083Zm-7.2,2.7-6.83,4.3a0.72,0.72,0,0,1-.45.2c-0.13,0-.27-0.1-0.41-0.1a0.95,0.95,0,0,1-.44-0.8v-8.6a0.84,0.84,0,0,1,.44-0.8,0.885,0.885,0,0,1,.86.1l6.83,4.3A0.812,0.812,0,0,1,1078.99,11085.7Z" transform="translate(-1062.34 -11076.4)"/>
</svg>
